<svg width="40" height="41" viewBox="0 0 40 41" fill="none" xmlns="http://www.w3.org/2000/svg">
<path d="M0.703125 0.505862L20.7031 20.5059L0.703125 40.5059L0.703125 35.5059C0.703125 35.5059 15.7031 27.8185 15.7031 20.5059C15.7031 13.1932 0.703125 5.50586 0.703125 5.50586L0.703125 0.505862Z" fill="white"/>
<path d="M19.7031 0.505854L39.7031 20.5059L19.7031 40.5059V35.5059C19.7031 35.5059 34.7031 27.8185 34.7031 20.5059C34.7031 13.1932 19.7031 5.50585 19.7031 5.50585V0.505854Z" fill="white"/>
<path d="M0.703125 0.505862L20.7031 20.5059L0.703125 40.5059L0.703125 35.5059C0.703125 35.5059 15.7031 27.8185 15.7031 20.5059C15.7031 13.1932 0.703125 5.50586 0.703125 5.50586L0.703125 0.505862Z" stroke="white"/>
<path d="M19.7031 0.505854L39.7031 20.5059L19.7031 40.5059V35.5059C19.7031 35.5059 34.7031 27.8185 34.7031 20.5059C34.7031 13.1932 19.7031 5.50585 19.7031 5.50585V0.505854Z" stroke="white"/>
</svg>
