<svg width="38" height="35" viewBox="0 0 38 35" fill="none" xmlns="http://www.w3.org/2000/svg">
<path d="M0 -1.72853e-06L18 17.5L0 35L0 30.625C0 30.625 13.5 23.8986 13.5 17.5C13.5 11.1014 0 4.375 0 4.375L0 -1.72853e-06Z" fill="white"/>
<path d="M20 -1.72853e-06L38 17.5L20 35V30.625C20 30.625 33.5 23.8986 33.5 17.5C33.5 11.1014 20 4.375 20 4.375L20 -1.72853e-06Z" fill="white"/>
<path d="M0 -1.72853e-06L18 17.5L0 35L0 30.625C0 30.625 13.5 23.8986 13.5 17.5C13.5 11.1014 0 4.375 0 4.375L0 -1.72853e-06Z" stroke="white"/>
<path d="M20 -1.72853e-06L38 17.5L20 35V30.625C20 30.625 33.5 23.8986 33.5 17.5C33.5 11.1014 20 4.375 20 4.375L20 -1.72853e-06Z" stroke="white"/>
</svg>
