<svg width="55" height="44" viewBox="0 0 55 44" fill="none" xmlns="http://www.w3.org/2000/svg">
<path d="M-3.8147e-06 44L27.5 20L55 44H48.125C48.125 44 37.5549 26 27.5 26C17.4451 26 6.875 44 6.875 44L-3.8147e-06 44Z" fill="white"/>
<path d="M0 24L27.5 0L55 24L48.125 24C48.125 24 37.5549 6 27.5 6C17.4451 6 6.875 24 6.875 24L0 24Z" fill="white"/>
<path d="M-3.8147e-06 44L27.5 20L55 44H48.125C48.125 44 37.5549 26 27.5 26C17.4451 26 6.875 44 6.875 44L-3.8147e-06 44Z" stroke="white"/>
<path d="M0 24L27.5 0L55 24L48.125 24C48.125 24 37.5549 6 27.5 6C17.4451 6 6.875 24 6.875 24L0 24Z" stroke="white"/>
</svg>
