<svg width="32" height="32" viewBox="0 0 32 32" fill="none" xmlns="http://www.w3.org/2000/svg">
<rect width="32" height="32" rx="8" fill="black"/>
<path d="M6.00407 12.457C6.00407 12.457 5.5176 4 15.1756 4C24.8335 4 24.4043 12.457 24.4043 12.457V23.178M6.00407 28.381C6.02223 26.5443 7.75913 25.0576 9.61708 25.2889C11.2521 25.4924 12.4224 28.381 12.4224 28.381C12.4224 28.381 13.7116 25.2497 15.4643 25.1301C17.3412 25.002 18.9601 28.381 18.9601 28.381C18.9601 28.381 20.1486 25.6854 21.7394 25.2889C23.8546 24.7616 26.3537 28.381 26.3537 28.381V11.1746M10.9414 12.6371C10.8835 10.1978 12.9775 8.16062 15.4643 8.23697C17.8762 8.31101 19.8873 10.2769 19.7128 12.6371C19.5503 14.8353 16.3614 14.423 15.4643 16.4438C14.586 18.4223 15.4643 21.9694 15.4643 21.9694" stroke="white"/>
</svg>
