<svg width="130" height="161" viewBox="0 0 130 161" fill="none" xmlns="http://www.w3.org/2000/svg">
<path d="M3.02482 54.6832C3.02482 54.6832 0.0610989 3 58.8998 3C117.739 3 115.124 54.6832 115.124 54.6832V120.203M3.02482 152C3.13544 140.776 13.7171 131.69 25.0361 133.103C34.9969 134.347 42.1267 152 42.1267 152C42.1267 152 49.9808 132.864 60.659 132.133C72.0931 131.35 81.9563 152 81.9563 152C81.9563 152 89.1965 135.527 98.888 133.103C111.775 129.881 127 152 127 152V46.8465M33.104 55.7844C32.7514 40.877 45.509 28.4269 60.659 28.8935C75.3528 29.346 87.6047 41.3599 86.5416 55.7844C85.5516 69.2182 66.1239 66.6984 60.659 79.048C55.3083 91.1394 60.659 112.817 60.659 112.817" stroke="white" stroke-width="5"/>
</svg>
