<svg width="40" height="51" viewBox="0 0 45 56" fill="none" xmlns="http://www.w3.org/2000/svg">
<path d="M1.98009 19.3316C1.98009 19.3316 0.976246 1.98828 20.9055 1.98828C40.8347 1.98828 39.949 19.3316 39.949 19.3316V41.3181M1.98009 51.9883C2.01756 48.2218 5.60166 45.1728 9.43553 45.6471C12.8094 46.0645 15.2243 51.9883 15.2243 51.9883C15.2243 51.9883 17.8845 45.5668 21.5013 45.3215C25.3742 45.0589 28.7149 51.9883 28.7149 51.9883C28.7149 51.9883 31.1673 46.4603 34.4499 45.6471C38.8147 44.5659 43.9717 51.9883 43.9717 51.9883V16.7019M12.1682 19.7012C12.0488 14.6987 16.3699 10.5208 21.5013 10.6774C26.4783 10.8292 30.6281 14.8607 30.268 19.7012C29.9327 24.2091 23.3524 23.3636 21.5013 27.5077C19.689 31.5653 21.5013 38.8395 21.5013 38.8395" stroke="white" stroke-width="2"/>
</svg>
